<?xml version="1.0" encoding="UTF-8" standalone="no"?>
<!-- Created with Inkscape (http://www.inkscape.org/) -->

<svg
   xmlns:dc="http://purl.org/dc/elements/1.1/"
   xmlns:cc="http://creativecommons.org/ns#"
   xmlns:rdf="http://www.w3.org/1999/02/22-rdf-syntax-ns#"
   xmlns:svg="http://www.w3.org/2000/svg"
   xmlns="http://www.w3.org/2000/svg"
   xmlns:sodipodi="http://sodipodi.sourceforge.net/DTD/sodipodi-0.dtd"
   xmlns:inkscape="http://www.inkscape.org/namespaces/inkscape"
   id="svg5468"
   version="1.1"
   inkscape:version="0.91 r13725"
   width="874.37494"
   height="874.45746"
   viewBox="0 0 874.37494 874.45746"
   sodipodi:docname="logo.svg">
  <metadata
     id="metadata5474">
    <rdf:RDF>
      <cc:Work
         rdf:about="">
        <dc:format>image/svg+xml</dc:format>
        <dc:type
           rdf:resource="http://purl.org/dc/dcmitype/StillImage" />
        <dc:title></dc:title>
      </cc:Work>
    </rdf:RDF>
  </metadata>
  <defs
     id="defs5472" />
  <sodipodi:namedview
     pagecolor="#ffffff"
     bordercolor="#666666"
     borderopacity="1"
     objecttolerance="10"
     gridtolerance="10"
     guidetolerance="10"
     inkscape:pageopacity="0"
     inkscape:pageshadow="2"
     inkscape:window-width="1920"
     inkscape:window-height="1053"
     id="namedview5470"
     showgrid="false"
     inkscape:zoom="0.3814336"
     inkscape:cx="291.19575"
     inkscape:cy="540.62031"
     inkscape:window-x="0"
     inkscape:window-y="27"
     inkscape:window-maximized="1"
     inkscape:current-layer="svg5468"
     fit-margin-top="0"
     fit-margin-left="0"
     fit-margin-right="0"
     fit-margin-bottom="0" />
  <g
     inkscape:groupmode="layer"
     id="layer2"
     inkscape:label="Layer 2"
     transform="translate(-437.88167,-436.85073)" />
  <path
     inkscape:connector-curvature="0"
     id="path6034"
     d="m -2877.5003,-169.90158 0,-875.00002 875,0 875,0 0,875.00002 0,875.00005 -875,0 -875,0 0,-875.00005 z"
     style="fill:#fefefe" />
  <path
     inkscape:connector-curvature="0"
     id="path6032"
     d="m -2652.3033,913.89537 c -2.4063,-0.2605 -11.6875,-1.073 -20.625,-1.8053 -21.2323,-1.7398 -63.5325,-7.7772 -88.0319,-12.5644 -163.8141,-32.0096 -310.6721,-107.1822 -432.7967,-221.5365 -58.6546,-54.9226 -111.9728,-121.37002 -153.2828,-191.02772 -59.5778,-100.4611 -97.2221,-208.0442 -113.905,-325.52691 -6.4037,-45.09562 -6.9836,-55.2085 -6.9836,-121.781896 0,-66.5734 0.5799,-76.68628 6.9836,-121.7819 16.6829,-117.482654 54.3272,-225.065814 113.905,-325.526834 41.31,-69.6577 94.6282,-136.1051 153.2828,-191.02773 143.9816,-134.82059 322.6803,-215.14925 521.4536,-234.40389 23.1716,-2.24457 134.3284,-2.24457 157.5,0 198.7733,19.25464 377.472,99.5833 521.4536,234.40389 58.6547,54.92263 111.9728,121.37003 153.2828,191.02773 59.5777,100.46102 97.2221,208.04418 113.905,325.526834 6.4037,45.09562 6.9836,55.2085 6.9836,121.7819 0,66.573396 -0.5799,76.686276 -6.9836,121.781896 -16.6829,117.48271 -54.3273,225.06581 -113.905,325.52691 -41.31,69.6577 -94.6282,136.10512 -153.2828,191.02772 -132.3211,123.9021 -293.741,201.8004 -473.3286,228.4199 -44.769,6.6359 -55.0189,7.288 -120,7.6341 -33.6875,0.1793 -63.2188,0.1125 -65.625,-0.1478 z m 77.5,-125.4475 c 8.5937,-0.6726 26.0312,-1.8486 38.75,-2.6133 12.7187,-0.7648 29.0312,-2.1562 36.25,-3.0918 20.5453,-2.6631 52.8035,-7.9877 56.25,-9.2849 1.7188,-0.6467 9.3125,-2.3565 16.875,-3.7992 7.5625,-1.4428 14.875,-3.1409 16.25,-3.7736 1.375,-0.633 7.8438,-2.3616 14.375,-3.8416 6.5313,-1.4802 12.4375,-3.1065 13.125,-3.6143 0.6875,-0.5079 5.9819,-2.18 11.7654,-3.716 5.7834,-1.536 11.4084,-3.2725 12.5,-3.859 1.0915,-0.5865 5.9221,-2.2722 10.7346,-3.7461 4.8125,-1.4739 11.1345,-3.7544 14.0489,-5.0676 2.9144,-1.3133 5.8508,-2.3878 6.5254,-2.3878 0.6747,0 4.1964,-1.3315 7.8262,-2.9589 3.6297,-1.6275 9.412,-3.9742 12.8495,-5.2152 3.4375,-1.241 6.8139,-2.6754 7.5031,-3.1874 0.6892,-0.5121 4.3455,-2.1494 8.125,-3.6385 7.8062,-3.0755 50.534,-24.2244 61.8719,-30.6247 13.7879,-7.7833 18.6813,-10.6539 29.375,-17.2325 14.6683,-9.0236 31.1209,-20.0593 43.7396,-29.3387 5.8495,-4.3015 12.0239,-8.8015 13.7208,-10 5.9361,-4.1924 31.7011,-25.0469 38.2117,-30.9291 1.5219,-1.375 6.3527,-5.578 10.735,-9.3401 10.3039,-8.8455 48.5323,-47.07392 57.3778,-57.37782 3.7621,-4.3824 7.9651,-9.2131 9.3401,-10.735 5.8822,-6.5106 26.7368,-32.2756 30.9291,-38.2117 1.1985,-1.6969 5.6985,-7.8713 10,-13.7208 9.2794,-12.6187 20.3152,-29.0714 29.3387,-43.7396 6.5786,-10.6938 9.4492,-15.5871 17.2325,-29.375 6.4003,-11.3379 27.5492,-54.0657 30.6247,-61.8719 1.4891,-3.7795 3.1264,-7.4358 3.6385,-8.125 0.512,-0.6892 1.9464,-4.0656 3.1874,-7.5031 1.241,-3.4375 3.5877,-9.2198 5.2152,-12.8496 1.6274,-3.6297 2.9589,-7.1515 2.9589,-7.8261 0,-0.6746 1.0745,-3.611 2.3878,-6.5254 1.3132,-2.9144 3.5937,-9.2364 5.0676,-14.0489 1.4739,-4.8125 3.1596,-9.6431 3.7461,-10.7347 0.5865,-1.0915 2.323,-6.7165 3.859,-12.5 1.536,-5.7834 3.2081,-11.0778 3.716,-11.7653 0.5078,-0.6875 2.1341,-6.5938 3.6143,-13.125 1.48,-6.5313 3.2086,-13 3.8415,-14.375 0.6327,-1.375 2.3308,-8.6875 3.7736,-16.25 1.4427,-7.5625 3.1525,-15.1563 3.7992,-16.875 1.2983,-3.4497 6.6223,-35.73426 9.2762,-56.25001 0.9337,-7.21875 2.3202,-23.25 3.0811,-35.624996 0.7607,-12.375 1.9871,-30.51563 2.7251,-40.3125 0.9559,-12.68853 0.9559,-22.93648 0,-35.625 -0.738,-9.79688 -1.9644,-27.9375005 -2.7251,-40.3125 -0.7609,-12.375 -2.1474,-28.40625 -3.0811,-35.625 -2.6539,-20.51575 -7.9779,-52.800304 -9.2762,-56.250004 -0.6467,-1.71875 -2.3565,-9.3125 -3.7992,-16.875 -1.4428,-7.56249 -3.1409,-14.87499 -3.7736,-16.24999 -0.6329,-1.375 -2.3615,-7.84375 -3.8415,-14.375 -1.4802,-6.53125 -3.1065,-12.4375 -3.6143,-13.125 -0.5079,-0.6875 -2.18,-5.9819 -3.716,-11.76535 -1.536,-5.78344 -3.2725,-11.40844 -3.859,-12.5 -0.5865,-1.09155 -2.2722,-5.92215 -3.7461,-10.73465 -1.4739,-4.8125 -3.7544,-11.1345 -5.0676,-14.04888 -1.3133,-2.91438 -2.3878,-5.85083 -2.3878,-6.52546 0,-0.67461 -1.3315,-4.19637 -2.9589,-7.82611 -1.6275,-3.62975 -3.9742,-9.41205 -5.2152,-12.84955 -1.241,-3.4375 -2.6754,-6.8139 -3.1874,-7.50313 -0.5121,-0.68921 -2.1494,-4.34546 -3.6385,-8.125 -3.0755,-7.80617 -24.2244,-50.53395 -30.6247,-61.87187 -7.7833,-13.78781 -10.6539,-18.68121 -17.2325,-29.375 -9.0235,-14.6682 -20.0593,-31.12088 -29.3387,-43.73959 -4.3015,-5.84947 -8.8015,-12.02386 -10,-13.72085 -4.1923,-5.93607 -25.0468,-31.70105 -30.9291,-38.21169 -1.375,-1.52188 -5.578,-6.35263 -9.3401,-10.73497 -8.8455,-10.30393 -47.0739,-48.53234 -57.3778,-57.3778 -4.3823,-3.76206 -9.2131,-7.9651 -10.735,-9.3401 -6.5106,-5.88221 -32.2756,-26.73676 -38.2117,-30.92909 -1.6969,-1.19848 -7.8713,-5.69848 -13.7208,-10 -12.6187,-9.27937 -29.0713,-20.31515 -43.7396,-29.33872 -10.6937,-6.5786 -15.5871,-9.44924 -29.375,-17.23249 -11.3379,-6.40027 -54.0657,-27.54926 -61.8719,-30.62474 -3.7795,-1.48906 -7.4358,-3.12636 -8.125,-3.63843 -0.6892,-0.51208 -4.0656,-1.9464 -7.5031,-3.18738 -3.4375,-1.24097 -9.2198,-3.58784 -12.8495,-5.21525 -3.6298,-1.6274 -7.1515,-2.95891 -7.8262,-2.95891 -0.6746,0 -3.611,-1.0745 -6.5254,-2.38779 -2.9144,-1.31327 -9.2364,-3.59369 -14.0489,-5.06757 -4.8125,-1.47389 -9.6431,-3.15965 -10.7346,-3.74614 -1.0916,-0.58648 -6.7166,-2.32304 -12.5,-3.85901 -5.7835,-1.53598 -11.0779,-3.20817 -11.7654,-3.71597 -0.6875,-0.5078 -6.5937,-2.1342 -13.125,-3.61423 -6.5312,-1.48003 -13,-3.2087 -14.375,-3.8415 -1.375,-0.6328 -8.6875,-2.33098 -16.25,-3.77373 -7.5625,-1.44275 -15.1562,-3.1524 -16.875,-3.79922 -3.4497,-1.29825 -35.7343,-6.62224 -56.25,-9.2761 -7.2188,-0.9338 -23.25,-2.32028 -35.625,-3.08107 -12.375,-0.76078 -30.5156,-1.98711 -40.3125,-2.72517 -12.6885,-0.95591 -22.9365,-0.95591 -35.625,0 -9.7969,0.73806 -27.9375,1.96439 -40.3125,2.72517 -12.375,0.76079 -28.4063,2.14727 -35.625,3.08107 -20.5158,2.65386 -52.8003,7.97785 -56.25,9.2761 -1.7188,0.64682 -9.3125,2.35647 -16.875,3.79922 -7.5625,1.44275 -14.875,3.14093 -16.25,3.77373 -1.375,0.6328 -7.8438,2.36147 -14.375,3.8415 -6.5313,1.48003 -12.4375,3.10643 -13.125,3.61423 -0.6875,0.5078 -5.9819,2.17999 -11.7654,3.71597 -5.7834,1.53597 -11.4084,3.27253 -12.5,3.85901 -1.0915,0.58649 -5.9221,2.27225 -10.7346,3.74614 -4.8125,1.47388 -11.1345,3.7543 -14.0489,5.06757 -2.9144,1.31329 -5.8508,2.38779 -6.5254,2.38779 -0.6747,0 -4.1964,1.33151 -7.8262,2.95891 -3.6297,1.62741 -9.412,3.97428 -12.8495,5.21525 -3.4375,1.24098 -6.8139,2.6753 -7.5031,3.18738 -0.6892,0.51207 -4.3455,2.14937 -8.125,3.63844 -7.8062,3.07547 -50.534,24.22446 -61.8719,30.62473 -13.7878,7.78325 -18.6812,10.65389 -29.375,17.23249 -14.6682,9.02358 -31.1209,20.05935 -43.7396,29.33872 -5.8495,4.30152 -12.0238,8.80152 -13.7208,10 -5.9361,4.19233 -31.7011,25.04688 -38.2117,30.92909 -1.5219,1.375 -6.3527,5.57804 -10.735,9.3401 -10.3039,8.84546 -48.5323,47.07388 -57.3778,57.3778 -3.7621,4.38234 -7.9651,9.21309 -9.3401,10.73498 -5.8822,6.51063 -26.7368,32.27561 -30.9291,38.21168 -1.1985,1.69699 -5.6985,7.87138 -10,13.72085 -9.2794,12.61871 -20.3151,29.07139 -29.3387,43.73959 -6.5786,10.69379 -9.4492,15.58719 -17.2325,29.375 -6.4003,11.33793 -27.5493,54.0657 -30.6247,61.87188 -1.4891,3.77953 -3.1264,7.43578 -3.6385,8.125 -0.512,0.68922 -1.9464,4.06562 -3.1873,7.50312 -1.241,3.4375 -3.5879,9.2198 -5.2153,12.84955 -1.6274,3.62974 -2.9589,7.1515 -2.9589,7.82611 0,0.67463 -1.0745,3.61108 -2.3878,6.52547 -1.3133,2.91437 -3.5937,9.23637 -5.0676,14.04887 -1.4739,4.8125 -3.1596,9.6431 -3.7461,10.73465 -0.5865,1.09156 -2.323,6.71656 -3.859,12.5 -1.536,5.78345 -3.2082,11.07785 -3.716,11.76535 -0.5078,0.6875 -2.1342,6.59375 -3.6142,13.125 -1.48,6.53125 -3.2087,13 -3.8415,14.375 -0.6328,1.375 -2.331,8.6875 -3.7737,16.24999 -1.4428,7.5625 -3.1524,15.15625 -3.7993,16.875 -1.2982,3.4497 -6.6222,35.734254 -9.2761,56.250004 -0.9338,7.21875 -2.3202,23.25 -3.081,35.625 -0.7608,12.3749995 -1.9871,30.51562 -2.7252,40.3125 -0.9559,12.68852 -0.9559,22.93648 0,35.625 0.7381,9.79687 1.9644,27.9375 2.7252,40.3125 0.7608,12.374996 2.1472,28.406246 3.081,35.624996 2.6539,20.51575 7.9779,52.80031 9.2761,56.25001 0.6469,1.7188 2.3565,9.3125 3.7993,16.875 1.4427,7.5625 3.1409,14.875 3.7737,16.25 0.6328,1.375 2.3615,7.8438 3.8415,14.375 1.48,6.5313 3.1064,12.4375 3.6142,13.125 0.5078,0.6875 2.18,5.9819 3.716,11.7654 1.536,5.7834 3.2725,11.4084 3.859,12.5 0.5865,1.0915 2.2722,5.9221 3.7461,10.7346 1.4739,4.8125 3.7543,11.1345 5.0676,14.0489 1.3133,2.9144 2.3878,5.8508 2.3878,6.5254 0,0.6747 1.3315,4.1964 2.9589,7.8262 1.6274,3.6297 3.9743,9.412 5.2153,12.8495 1.2409,3.4375 2.6753,6.8139 3.1873,7.5031 0.5121,0.6892 2.1494,4.3455 3.6385,8.125 3.0754,7.8062 24.2244,50.534 30.6247,61.8719 7.7833,13.7879 10.6539,18.6813 17.2325,29.375 9.0236,14.6683 20.0593,31.1209 29.3387,43.7396 4.3015,5.8495 8.8015,12.0239 10,13.7208 4.1923,5.9361 25.0469,31.7011 30.9291,38.2117 1.375,1.5219 5.578,6.3527 9.3401,10.735 8.8455,10.3039 47.0739,48.53232 57.3778,57.37782 4.3823,3.7621 9.2131,7.9651 10.735,9.3401 6.5106,5.8822 32.2756,26.7368 38.2117,30.9291 1.697,1.1985 7.8713,5.6985 13.7208,10 12.6187,9.2794 29.0714,20.3152 43.7396,29.3387 10.6938,6.5786 15.5872,9.4492 29.375,17.2325 11.3379,6.4003 54.0657,27.5492 61.8719,30.6247 3.7795,1.4891 7.4358,3.1264 8.125,3.6385 0.6892,0.512 4.0656,1.9464 7.5031,3.1874 3.4375,1.241 9.2198,3.5877 12.8495,5.2152 3.6298,1.6274 7.1516,2.9589 7.8262,2.9589 0.6746,0 3.611,1.0745 6.5254,2.3878 2.9144,1.3132 9.2364,3.5937 14.0489,5.0676 4.8125,1.4739 9.6431,3.1596 10.7346,3.7461 1.0916,0.5865 6.7166,2.323 12.5,3.859 5.7835,1.536 11.0779,3.2081 11.7654,3.716 0.6875,0.5078 6.5937,2.1341 13.125,3.6143 6.5312,1.48 13,3.2086 14.375,3.8416 1.375,0.6327 8.6875,2.3308 16.25,3.7736 7.5625,1.4427 15.1562,3.1525 16.875,3.7992 3.4217,1.2878 35.472,6.5848 56.25,9.2965 7.2187,0.9422 24.0937,2.3648 37.5,3.1614 13.4062,0.7968 29.4375,1.8858 35.625,2.4203 16.6918,1.4418 22.1818,1.4575 39.375,0.1125 z m -328.75,-665.04523 0,-366.24999 91.25,0 91.25,0 0,288.749994 0,288.750006 82.5,0 82.5,0 0,77.5 0,77.5 -173.75,0 -173.75,0 0,-366.25001 z m 360,289.05301 0,-77.5114 2.8125,-0.7537 c 1.5469,-0.4146 6.2722,-0.7614 10.5008,-0.7708 9.9072,-0.022 32.9533,-3.9917 47.3117,-8.1494 71.6081,-20.7354 121.9035,-88.0588 141.7764,-189.77636 13.5376,-69.290606 12.4878,-162.955306 -2.6083,-232.716346 -8.3396,-38.538734 -24.9048,-77.995554 -41.557,-98.985184 -27.8178,-35.06372 -72.9569,-53.83542 -139.0889,-57.84201 -12.5439,-0.75996 -93.2388,-1.27849 -200.0847,-1.28571 l -179.0625,-0.0121 0,-77.54334 0,-77.54334 217.1875,0.46264 c 226.4159,0.48228 221.4091,0.36495 257.1875,6.02723 54.5941,8.64006 101.4151,27.92292 143.0128,58.89875 14.3958,10.71988 43.959,39.97476 55.2745,54.69806 40.1378,52.22594 64.514,107.4858 78.0121,176.85089 10.5442,54.185644 13.6497,90.402294 12.7031,148.149104 -1.0304,62.86697 -6.9065,109.442356 -20.2965,160.877216 -16.6505,63.9593 -45.8191,125.2108 -81.431,170.9978 -33.6015,43.2023 -78.9555,77.6317 -128.4004,97.4724 -44.1879,17.7312 -79.3368,24.2352 -136.6871,25.2929 l -36.5625,0.6742 0,-77.5115 z"
     style="fill:#00acee;fill-opacity:1" />
  <path
     inkscape:connector-curvature="0"
     id="path6030"
     d="m -377.98755,3544.3835 c -2.4063,-0.2605 -11.6875,-1.073 -20.625,-1.8053 -21.2323,-1.7398 -63.5325,-7.7772 -88.0319,-12.5644 -163.81411,-32.0096 -310.67211,-107.1822 -432.79671,-221.5364 -58.6546,-54.9226 -111.97284,-121.3701 -153.28284,-191.0278 -59.5778,-100.4611 -97.2221,-208.0442 -113.905,-325.5269 -6.4037,-45.0956 -6.9836,-55.2085 -6.9836,-121.7819 0,-66.5734 0.5799,-76.6863 6.9836,-121.7819 16.6829,-117.4826 54.3272,-225.0658 113.905,-325.5268 41.31,-69.6577 94.62824,-136.1051 153.28284,-191.0277 143.9816,-134.8206 322.6803,-215.1493 521.45361,-234.4039 23.1716,-2.2446 134.32839,-2.2446 157.49999,0 198.773305,19.2546 377.472,99.5833 521.45358,234.4039 58.6547,54.9226 111.97279,121.37 153.28279,191.0277 59.5777,100.461 97.2221,208.0442 113.905,325.5268 6.4037,45.0956 6.9836,55.2085 6.9836,121.7819 0,66.5734 -0.5799,76.6863 -6.9836,121.7819 -16.6829,117.4827 -54.3273,225.0658 -113.905,325.5269 -41.31,69.6577 -94.62819,136.1052 -153.28279,191.0278 -132.32108,123.902 -293.740975,201.8003 -473.32858,228.4198 -44.769,6.6359 -55.0189,7.288 -120,7.6341 -33.68749,0.1793 -63.21879,0.1125 -65.62499,-0.1478 z m 90.62499,-125.4678 c 84.0424,-4.2815 166.3622,-21.5087 238.125005,-49.8325 24.777,-9.7792 23.3342,-9.1649 46.2499997,-19.6927 60.2778003,-27.6925 120.4949953,-66.593 173.7499953,-112.243 16.9186,-14.5027 62.504,-60.0881 77.00658,-77.0067 45.65,-53.255 84.5505,-113.4722 112.243,-173.75 10.5278,-22.9158 9.9135,-21.473 19.69269,-46.25 15.9119,-40.3153 28.554,-84.9187 37.3776,-131.875 22.8739,-121.7265 15.6921,-242.0793 -21.7058,-363.75 -5.9769,-19.4455 -19.68389,-56.0614 -27.37399,-73.125 -33.9477,-75.3269 -69.9392,-132.5771 -120.2335,-191.25 -14.50258,-16.9187 -60.08798,-62.5039 -77.00658,-77.0066 -53.255,-45.65 -113.472195,-84.5505 -173.7499953,-112.2429 -22.9157997,-10.5279 -21.4729997,-9.9136 -46.2499997,-19.6927 -40.3153,-15.912 -84.918705,-28.554 -131.875005,-37.3777 -121.7265,-22.8738 -242.07929,-15.6921 -363.75,21.7057 -19.4455,5.977 -56.0614,19.684 -73.125,27.3741 -75.3269,33.9477 -132.5771,69.9393 -191.25,120.2335 -16.9187,14.5027 -62.504,60.0879 -77.0066,77.0066 -45.65,53.255 -84.5505,113.4723 -112.243,173.75 -10.52784,22.9158 -9.91354,21.473 -19.69274,46.25 -15.9119,40.3153 -28.554,84.9187 -37.3776,131.875 -22.8738,121.7266 -15.6921,242.0793 21.7057,363.75 5.977,19.4455 19.684,56.0614 27.3741,73.125 33.94774,75.3269 69.93934,132.5771 120.23354,191.25 14.5026,16.9186 60.0879,62.504 77.0066,77.0067 53.255,45.65 113.4723,84.5505 173.75,112.243 22.9158,10.5278 21.473,9.9135 46.25,19.6927 91.75611,36.215 204.34651,54.8011 301.875,49.8325 z m -341.875,-665.0249 0,-366.25 91.25,0 91.25001,0 0,288.75 0,288.75 82.5,0 82.49999,0 0,77.5 0,77.5 -173.74999,0 -173.75001,0 0,-366.25 z m 360,289.0314 0,-77.557 10.9375,-0.8146 c 27.824,-2.0723 54.4502,-8.5724 74.8996,-18.2848 39.0255,-18.5352 71.9985,-54.8486 92.870805,-102.2792 23.9772,-54.4865 35.6167,-125.21 33.24,-201.9708 -2.5207,-81.4087 -15.04,-140.9402 -39.0364,-185.625 -20.450505,-38.0815 -51.124105,-60.4585 -99.180405,-72.3538 -34.0646,-8.432 -24.0408,-8.0731 -239.04359,-8.5589 l -194.68751,-0.44 0,-77.4486 0,-77.4487 204.68751,0.01 c 231.15089,0.01 238.02239,0.2348 285.83839,9.529 82.363905,16.0094 150.738605,61.9578 197.863205,132.9659 31.6129,47.6347 50.545795,94.7105 62.096095,154.3997 8.6773,44.8415 11.9813,75.6104 12.8829,119.9753 2.3088,113.597 -18.5899,214.0811 -61.738195,296.8466 -51.0526,97.927 -126.8829,157.474 -226.764805,178.071 -26.9047,5.5482 -42.5371,7.0874 -79.5526,7.8338 l -35.3125,0.7119 0,-77.5569 z"
     style="fill:#a0a0a0" />
  <path
     style="fill:#00acee"
     d="m -4597.8846,2717.1648 c -2.4063,-0.2605 -11.6875,-1.073 -20.625,-1.8053 -21.2323,-1.7398 -63.5325,-7.7772 -88.0319,-12.5644 -163.8141,-32.0096 -310.6721,-107.1822 -432.7967,-221.5364 -58.6546,-54.9226 -111.9728,-121.3701 -153.2828,-191.0278 -59.5778,-100.4611 -97.2221,-208.0442 -113.905,-325.5269 -6.4037,-45.0956 -6.9836,-55.2085 -6.9836,-121.7819 0,-66.5734 0.5799,-76.6863 6.9836,-121.7819 16.6829,-117.4826 54.3272,-225.0658 113.905,-325.5268 41.31,-69.6577 94.6282,-136.1051 153.2828,-191.0277 143.9816,-134.8206 322.6803,-215.14933 521.4536,-234.40393 23.1716,-2.2446 134.3284,-2.2446 157.5,0 198.7733,19.2546 377.472,99.58333 521.4535,234.40393 58.6547,54.9226 111.9728,121.37 153.2828,191.0277 59.5777,100.461 97.2221,208.0442 113.905,325.5268 6.4037,45.0956 6.9836,55.2085 6.9836,121.7819 0,66.5734 -0.5799,76.6863 -6.9836,121.7819 -16.6829,117.4827 -54.3273,225.0658 -113.905,325.5269 -41.31,69.6577 -94.6282,136.1052 -153.2828,191.0278 -132.321,123.902 -293.7409,201.8003 -473.3285,228.4198 -44.769,6.6359 -55.0189,7.288 -120,7.6341 -33.6875,0.1793 -63.2188,0.1125 -65.625,-0.1478 z"
     id="path6052"
     inkscape:connector-curvature="0" />
  <path
     style="fill:#00acee"
     d="m -6189.7254,597.97037 c 25.717,-2.4722 56.2306,-6.3747 68.125,-8.7129 6.875,-1.3515 16.1562,-3.0799 20.625,-3.8409 34.4641,-5.869 108.3231,-28.38439 139.6739,-42.57839 2.9144,-1.3195 5.6216,-2.3991 6.0162,-2.3991 2.6212,0 60.939,-28.9692 77.4349,-38.4657 23.4604,-13.5058 27.633,-16.0763 45.625,-28.106 81.5295,-54.5123 152.6659,-125.6489 207.1782,-207.1784 12.0297,-17.992 14.6002,-22.1646 28.106,-45.625 9.4964,-16.4959 38.4657,-74.8137 38.4657,-77.4349 0,-0.3946 1.0796,-3.1018 2.3991,-6.0162 14.194,-31.3508 36.7094,-105.209796 42.5784,-139.6738965 0.761,-4.4687 2.4894,-13.7499995 3.8409,-20.6249995 2.2817,-11.6069 5.6722,-37.9564 8.9267,-69.375 1.7609,-16.998804 1.7609,-98.001204 0,-115.000004 -3.2545,-31.4186 -6.645,-57.7681 -8.9267,-69.375 -1.3515,-6.875 -3.0799,-16.1562 -3.8409,-20.625 -5.869,-34.4641 -28.3844,-108.323 -42.5784,-139.6739 -1.3195,-2.9143 -2.3991,-5.6216 -2.3991,-6.0161 0,-2.6213 -28.9693,-60.9391 -38.4657,-77.435 -13.5058,-23.4603 -16.0763,-27.633 -28.106,-45.625 -54.5123,-81.5295 -125.6487,-152.6659 -207.1782,-207.1782 -17.992,-12.0298 -22.1646,-14.6003 -45.625,-28.106 -16.4959,-9.4965 -74.8137,-38.4658 -77.4349,-38.4658 -0.3946,0 -3.1018,-1.0796 -6.0162,-2.3991 -31.3508,-14.1941 -105.2098,-36.7093 -139.6739,-42.5784 -4.4688,-0.761 -13.75,-2.4894 -20.625,-3.8409 -11.6069,-2.2817 -37.9564,-5.6722 -69.375,-8.9267 -16.9988,-1.7608 -98.0012,-1.7608 -115,0 -31.4186,3.2545 -57.7681,6.645 -69.375,8.9267 -6.875,1.3515 -16.1563,3.0799 -20.625,3.8409 -34.4641,5.8691 -108.3231,28.3843 -139.6739,42.5784 -2.9144,1.3195 -5.6216,2.3991 -6.0162,2.3991 -2.6212,0 -60.939,28.9693 -77.4349,38.4658 -23.4603,13.5057 -27.6331,16.0762 -45.625,28.106 -81.5296,54.5123 -152.6659,125.6487 -207.1782,207.1782 -12.0298,17.992 -14.6003,22.1647 -28.1061,45.625 -9.4964,16.4959 -38.4657,74.8137 -38.4657,77.435 0,0.3945 -1.0796,3.1018 -2.3991,6.0161 -14.1941,31.3509 -36.7094,105.2098 -42.5784,139.6739 -0.761,4.4688 -2.4894,13.75 -3.8409,20.625 -2.2817,11.6069 -5.6722,37.9564 -8.9267,69.375 -1.7609,16.9988 -1.7609,98.0012 0,115.000004 3.2545,31.4186 6.645,57.7681 8.9267,69.375 1.3515,6.875 3.0799,16.1561995 3.8409,20.6249995 5.869,34.4641005 28.3843,108.3230965 42.5784,139.6738965 1.3195,2.9144 2.3991,5.6216 2.3991,6.0162 0,2.6212 28.9693,60.939 38.4657,77.4349 13.5058,23.4604 16.0763,27.633 28.1061,45.625 54.5123,81.5295 125.6486,152.6661 207.1782,207.1784 17.9919,12.0297 22.1647,14.6002 45.625,28.106 16.4959,9.4964 74.8137,38.4657 77.4349,38.4657 0.3946,0 3.1018,1.0796 6.0162,2.3991 33.0322,14.9553 105.6066,36.82639 143.4239,43.22229 6.5312,1.1046 13.8437,2.5253 16.25,3.1571 2.4062,0.6319 13.6562,2.2764 25,3.6545 11.3437,1.3783 25.4062,3.1339 31.25,3.9014 26.5657,3.4895 99.1941,4.1581 130,1.1969 z"
     id="path6050"
     inkscape:connector-curvature="0" />
  <path
     style="fill:#00acee"
     d="m -4489.1346,2215.656 0,-77.2662 17.1875,-1.4892 c 50.3777,-4.3649 87.3839,-21.511 119.6364,-55.4312 51.4592,-54.1201 78.129,-147.9748 75.245,-264.7973 -1.9079,-77.2822 -12.6213,-132.6116 -34.5266,-178.3128 -9.1061,-18.9981 -15.4439,-28.4422 -27.3337,-40.7305 -24.4684,-25.2885 -56.9325,-39.4861 -108.3336,-47.3777 -7.4881,-1.1497 -59.2179,-1.6461 -205.9375,-1.9764 l -195.9375,-0.441 0,-77.4558 0,-77.4558 202.1875,0.019 c 229.4755,0.022 240.2786,0.3777 286.775,9.4438 92.9246,18.1188 164.0338,70.104 213.5879,156.1458 28.177,48.9245 43.9472,98.3994 54.2691,170.2554 5.1506,35.856 6.3082,53.7401 6.2554,96.6357 -0.08,65.1478 -5.2709,110.9431 -18.8371,166.1998 -30.3863,123.7672 -95.3843,216.5364 -184.2378,262.9555 -49.7066,25.9679 -106.6548,38.3446 -176.4315,38.3446 l -23.5685,0 0,-77.2661 z"
     id="path6028"
     inkscape:connector-curvature="0" />
  <path
     inkscape:connector-curvature="0"
     id="path6026"
     d="m -2261.4622,2691.6292 c -2.4063,-0.2605 -11.6875,-1.073 -20.625,-1.8053 -21.2323,-1.7398 -63.5325,-7.7772 -88.0319,-12.5644 -163.8141,-32.0096 -310.6721,-107.1822 -432.7967,-221.5364 -58.6546,-54.9226 -111.9728,-121.37 -153.2828,-191.0277 -59.5778,-100.4611 -97.2221,-208.0442 -113.905,-325.5269 -6.4037,-45.0956 -6.9836,-55.2085 -6.9836,-121.7819 0,-66.5734 0.5799,-76.6863 6.9836,-121.7819 16.6829,-117.4827 54.3272,-225.0658 113.905,-325.5269 41.31,-69.6577 94.6282,-136.105 153.2828,-191.0277 143.9816,-134.8206 322.6803,-215.14923 521.4536,-234.40393 23.1716,-2.2445 134.3284,-2.2445 157.5,0 198.7733,19.2547 377.472,99.58333 521.4536,234.40393 58.6547,54.9227 111.9728,121.37 153.2828,191.0277 59.5777,100.4611 97.2221,208.0442 113.905,325.5269 6.4037,45.0956 6.9836,55.2085 6.9836,121.7819 0,66.5734 -0.5799,76.6863 -6.9836,121.7819 -16.6829,117.4827 -54.3273,225.0658 -113.905,325.5269 -41.31,69.6577 -94.6282,136.1051 -153.2828,191.0277 -132.3211,123.902 -293.741,201.8003 -473.3286,228.4198 -44.769,6.6359 -55.0189,7.288 -120,7.6341 -33.6875,0.1793 -63.2188,0.1125 -65.625,-0.1478 z m 117.5,-126.7113 c 25.717,-2.4722 56.2306,-6.3747 68.125,-8.7129 6.875,-1.3515 16.1562,-3.0799 20.625,-3.8409 34.4641,-5.869 108.3231,-28.3844 139.6739,-42.5784 2.9144,-1.3195 5.6216,-2.3991 6.0162,-2.3991 2.6212,0 60.939,-28.9692 77.4349,-38.4657 23.4604,-13.5058 27.633,-16.0763 45.625,-28.106 81.5295,-54.5123 152.666,-125.6488 207.1783,-207.1783 12.0297,-17.992 14.6002,-22.1646 28.106,-45.625 9.4964,-16.4959 38.4657,-74.8137 38.4657,-77.4349 0,-0.3946 1.0796,-3.1018 2.3991,-6.0162 14.194,-31.3508 36.7094,-105.2098 42.5784,-139.6739 0.761,-4.4687 2.4894,-13.75 3.8409,-20.625 2.2817,-11.6069 5.6722,-37.9564 8.9267,-69.375 1.7609,-16.9988 1.7609,-98.0012 0,-115 -3.2545,-31.4186 -6.645,-57.7681 -8.9267,-69.375 -1.3515,-6.875 -3.0799,-16.1563 -3.8409,-20.625 -5.869,-34.4641 -28.3844,-108.3231 -42.5784,-139.6739 -1.3195,-2.9144 -2.3991,-5.6217 -2.3991,-6.0162 0,-2.6212 -28.9693,-60.939 -38.4657,-77.4349 -13.5058,-23.4603 -16.0763,-27.6331 -28.106,-45.625 -54.5123,-81.5296 -125.6488,-152.666 -207.1783,-207.1783 -17.992,-12.0297 -22.1646,-14.6002 -45.625,-28.106 -16.4959,-9.4964 -74.8137,-38.4657 -77.4349,-38.4657 -0.3946,0 -3.1018,-1.0796 -6.0162,-2.3991 -31.3508,-14.1941 -105.2098,-36.7094 -139.6739,-42.5784 -4.4688,-0.761 -13.75,-2.4894 -20.625,-3.8409 -11.6069,-2.2818 -37.9564,-5.6722 -69.375,-8.9267 -16.9988,-1.7609 -98.0012,-1.7609 -115,0 -31.4186,3.2545 -57.7681,6.6449 -69.375,8.9267 -6.875,1.3515 -16.1563,3.0799 -20.625,3.8409 -34.4641,5.869 -108.3231,28.3843 -139.6739,42.5784 -2.9144,1.3195 -5.6216,2.3991 -6.0162,2.3991 -2.6212,0 -60.939,28.9693 -77.4349,38.4657 -23.4603,13.5058 -27.6331,16.0763 -45.625,28.106 -81.5296,54.5123 -152.6659,125.6487 -207.1782,207.1783 -12.0298,17.9919 -14.6003,22.1647 -28.1061,45.625 -9.4964,16.4959 -38.4657,74.8137 -38.4657,77.4349 0,0.3945 -1.0796,3.1018 -2.3991,6.0162 -14.1941,31.3508 -36.7094,105.2098 -42.5784,139.6739 -0.761,4.4687 -2.4894,13.75 -3.8409,20.625 -2.2817,11.6069 -5.6722,37.9564 -8.9267,69.375 -1.7609,16.9988 -1.7609,98.0012 0,115 3.2545,31.4186 6.645,57.7681 8.9267,69.375 1.3515,6.875 3.0799,16.1562 3.8409,20.625 5.869,34.4641 28.3843,108.3231 42.5784,139.6739 1.3195,2.9144 2.3991,5.6216 2.3991,6.0162 0,2.6212 28.9693,60.939 38.4657,77.4349 13.5058,23.4604 16.0763,27.633 28.1061,45.625 54.5123,81.5295 125.6486,152.666 207.1782,207.1783 17.9919,12.0297 22.1647,14.6002 45.625,28.106 16.4959,9.4964 74.8137,38.4657 77.4349,38.4657 0.3946,0 3.1018,1.0796 6.0162,2.3991 33.0322,14.9553 105.6066,36.8264 143.4239,43.2223 6.5312,1.1046 13.8437,2.5253 16.25,3.1571 2.4062,0.6319 13.6562,2.2764 25,3.6545 11.3437,1.3783 25.4062,3.1339 31.25,3.9014 26.5657,3.4895 99.1941,4.1581 130,1.1969 z m -8.75,-374.7974 0,-77.2662 17.1875,-1.4892 c 50.3777,-4.3649 87.3839,-21.511 119.6364,-55.4312 51.4592,-54.1201 78.129,-147.9749 75.245,-264.7973 -1.9079,-77.2822 -12.6213,-132.6117 -34.5266,-178.3128 -9.1061,-18.9981 -15.4439,-28.4422 -27.3337,-40.7306 -24.4684,-25.2885 -56.9325,-39.486 -108.3336,-47.3777 -7.4881,-1.1496 -59.2179,-1.6461 -205.9375,-1.9763 l -195.9375,-0.441 0,-77.4558 0,-77.4558 202.1875,0.019 c 229.4755,0.022 240.2786,0.3777 286.775,9.4438 92.9246,18.1188 164.0338,70.104 213.5879,156.1458 28.177,48.9244 43.9472,98.3994 54.2691,170.2554 5.1506,35.856 6.3082,53.7401 6.2554,96.6357 -0.08,65.1478 -5.2709,110.9431 -18.8371,166.1998 -30.3863,123.7672 -95.3843,216.5364 -184.2378,262.9555 -49.7066,25.9679 -106.6548,38.3446 -176.4315,38.3446 l -23.5685,0 0,-77.2661 z"
     style="fill:#6f6f6f" />
  <path
     inkscape:connector-curvature="0"
     id="path6024"
     d="m -4026.2927,874.89187 c -2.4063,-0.2605 -11.6875,-1.073 -20.625,-1.8053 -21.2323,-1.7398 -63.5325,-7.7772 -88.0319,-12.5644 -163.8141,-32.0096 -310.6721,-107.1822 -432.7967,-221.5364 -58.6546,-54.9226 -111.9728,-121.37 -153.2828,-191.0277 -59.5778,-100.4611 -97.2221,-208.0442 -113.905,-325.5269 -6.4037,-45.095616 -6.9836,-55.208496 -6.9836,-121.78189647 0,-66.57339953 0.5799,-76.68627953 6.9836,-121.78190353 16.6829,-117.48266 54.3272,-225.06582 113.905,-325.52684 41.31,-69.6577 94.6282,-136.10509 153.2828,-191.02772 143.9816,-134.82059 322.6803,-215.14925 521.4536,-234.4039 23.1716,-2.24457 134.3284,-2.24457 157.5,0 198.7733,19.25465 377.472,99.58331 521.4536,234.4039 58.6547,54.92263 111.9728,121.37002 153.2828,191.02772 59.5777,100.46102 97.2221,208.04418 113.905,325.52684 6.4037,45.095624 6.9836,55.208504 6.9836,121.78190353 0,66.57340047 -0.5799,76.68628047 -6.9836,121.78189647 -16.6829,117.4827 -54.3273,225.0658 -113.905,325.5269 -41.31,69.6577 -94.6282,136.1051 -153.2828,191.0277 -132.3211,123.902 -293.741,201.8003 -473.3286,228.4198 -44.769,6.6359 -55.0189,7.288 -120,7.6341 -33.6875,0.1793 -63.2188,0.1125 -65.625,-0.1478 z m 101.25,-125.5402 c 12.7187,-0.713 27.3437,-1.7919 32.5,-2.3977 18.3987,-2.1615 48.5089,-6.3368 54.5159,-7.5598 3.36,-0.684 12.0153,-2.366 19.2341,-3.7378 65.0594,-12.3629 137.6861,-38.4141 203.0502,-72.8341 25.1152,-13.2254 29.6447,-15.9295 61.3248,-36.611 19.7429,-12.8886 24.1013,-15.9965 46.25,-32.9797 47.0529,-36.07935 97.1279,-86.1544 133.2073,-133.2073 16.9832,-22.1488 20.0911,-26.5071 32.9797,-46.25 20.6815,-31.6801 23.3856,-36.2096 36.611,-61.3248 34.42,-65.3641 60.4713,-137.9908 72.8341,-203.0502 1.3718,-7.2188 3.0538,-15.8741 3.7378,-19.2341 1.223,-6.007 5.3984,-36.117206 7.5599,-54.515896 1.7753,-15.11233 3.6937,-54.06458 3.6937,-75.00000047 0,-20.93542953 -1.9184,-59.88767953 -3.6937,-74.99999953 -2.1615,-18.39869 -6.3369,-48.508904 -7.5599,-54.515944 -0.684,-3.35999 -2.366,-12.01531 -3.7378,-19.23406 -12.3628,-65.05938 -38.4141,-137.68613 -72.8341,-203.05023 -13.2254,-25.11516 -15.9295,-29.64462 -36.611,-61.32477 -12.8886,-19.74288 -15.9965,-24.10125 -32.9797,-46.25 -36.0794,-47.05288 -86.1544,-97.12788 -133.2073,-133.20721 -22.1487,-16.98328 -26.5071,-20.09112 -46.25,-32.97974 -31.6801,-20.68154 -36.2096,-23.38564 -61.3248,-36.61101 -65.3641,-34.42004 -137.9908,-60.47127 -203.0502,-72.83414 -7.2188,-1.37174 -15.8741,-3.05375 -19.2341,-3.73779 -6.007,-1.22294 -36.1172,-5.39839 -54.5159,-7.55985 -15.1123,-1.77539 -54.0646,-3.69381 -75,-3.69381 -20.9354,0 -59.8877,1.91842 -75,3.69381 -18.3987,2.16146 -48.5089,6.33691 -54.5159,7.55985 -3.36,0.68404 -12.0154,2.36605 -19.2341,3.73779 -65.0594,12.36287 -137.6861,38.4141 -203.0502,72.83414 -25.1152,13.22537 -29.6447,15.92947 -61.3248,36.61101 -19.7429,12.88863 -24.1013,15.99646 -46.25,32.97974 -47.0529,36.07933 -97.1279,86.15434 -133.2072,133.20721 -16.9833,22.14875 -20.0911,26.50712 -32.9797,46.25 -20.6816,31.68015 -23.3857,36.20961 -36.6111,61.32478 -34.42,65.36409 -60.4712,137.99084 -72.8341,203.05022 -1.3717,7.21875 -3.0537,15.87407 -3.7378,19.23406 -1.2229,6.00704 -5.3984,36.117254 -7.5598,54.515944 -1.7754,15.11233 -3.6938,54.06457 -3.6938,74.99999953 0,20.93542047 1.9184,59.88767047 3.6938,75.00000047 2.1614,18.39869 6.3369,48.508896 7.5598,54.515896 0.6841,3.36 2.3661,12.0153 3.7378,19.2341 12.3629,65.0594 38.4141,137.6861 72.8341,203.0502 13.2254,25.1152 15.9295,29.6447 36.6111,61.3248 12.8886,19.7429 15.9964,24.1013 32.9797,46.25 36.0793,47.0529 86.1543,97.12795 133.2072,133.2073 22.1488,16.9832 26.5071,20.0911 46.25,32.9797 31.6802,20.6815 36.2096,23.3856 61.3248,36.611 65.3641,34.42 137.9908,60.4713 203.0502,72.8341 7.2187,1.3718 15.8741,3.0538 19.2341,3.7378 6.1192,1.2457 36.34,5.4316 55.1692,7.6414 28.473,3.3415 80.2445,4.3677 116.8467,2.3161 z m 7.5,-376.0183 0,-77.6841 5.6743,0 c 17.4324,0 44.0772,-4.882 63.0757,-11.557 91.9754,-32.3152 143.7749,-138.519 143.7326,-294.692996 -0.024,-90.008894 -14.6798,-161.213604 -43.0937,-209.375004 -23.1595,-39.25503 -60.9334,-61.40813 -121.8889,-71.48362 -11.9893,-1.98174 -30.1881,-2.2042 -210.3125,-2.57089 l -197.1875,-0.40143 0,-77.51622 0,-77.51623 212.8125,0.45159 c 189.0731,0.40121 214.8344,0.68512 230.9375,2.54513 54.4927,6.29423 88.9209,15.59615 126.1159,34.07443 49.1463,24.41564 87.511,59.1572 120.0554,108.71736 30.0971,45.83338 47.583,89.27906 59.345,147.44988 10.3472,51.17436 13.694,85.146744 13.6687,138.750004 -0.053,110.92007 -19.6366,200.326996 -61.6559,281.471996 -20.8079,40.183 -40.8026,67.4746 -70.8218,96.6679 -31.6946,30.8227 -67.2289,53.1515 -107.9573,67.8376 -40.7396,14.69 -75.7577,20.544 -130.3125,21.784 l -32.1875,0.7316 0,-77.684 z"
     style="fill:#4f4f4f" />
  <path
     inkscape:connector-curvature="0"
     id="path6022"
     d="m -2513.5808,-1067.9047 c -2.4063,-0.2605 -11.6875,-1.073 -20.625,-1.8053 -21.2323,-1.7398 -63.5325,-7.7772 -88.0319,-12.5644 -163.8141,-32.0096 -310.6721,-107.1822 -432.7967,-221.5364 -58.6546,-54.9226 -111.9728,-121.37 -153.2828,-191.0277 -59.5778,-100.4611 -97.2221,-208.0442 -113.905,-325.5269 -6.4037,-45.0956 -6.9836,-55.2085 -6.9836,-121.7819 0,-66.5734 0.5799,-76.6863 6.9836,-121.7819 16.6829,-117.4827 54.3272,-225.0658 113.905,-325.5269 41.31,-69.6577 94.6282,-136.105 153.2828,-191.0277 143.9816,-134.8206 322.6803,-215.1492 521.4536,-234.4039 23.1716,-2.2445 134.3284,-2.2445 157.5,0 198.7733,19.2547 377.472,99.5833 521.4536,234.4039 58.6547,54.9227 111.9728,121.37 153.2828,191.0277 59.5777,100.4611 97.2221,208.0442 113.905,325.5269 6.4037,45.0956 6.9836,55.2085 6.9836,121.7819 0,66.5734 -0.5799,76.6863 -6.9836,121.7819 -16.6829,117.4827 -54.3273,225.0658 -113.905,325.5269 -41.31,69.6577 -94.6282,136.1051 -153.2828,191.0277 -132.3211,123.902 -293.741,201.8003 -473.3286,228.4198 -44.769,6.6359 -55.0189,7.288 -120,7.6341 -33.6875,0.1793 -63.2188,0.1125 -65.625,-0.1478 z m 124.375,-126.7257 c 72.2266,-6.599 149.5396,-25.2724 215,-51.9289 6.1875,-2.5196 13.9127,-5.6457 17.1671,-6.9467 10.091,-4.0343 45.8653,-21.5539 60.9579,-29.8528 64.9853,-35.7331 119.0251,-76.3014 171.3811,-128.6574 52.356,-52.356 92.9243,-106.3958 128.6574,-171.3811 8.2989,-15.0926 25.8185,-50.8669 29.8528,-60.9579 1.301,-3.2544 4.4271,-10.9796 6.9467,-17.1671 26.9143,-66.0933 45.2151,-142.2254 52.1331,-216.875 2.0623,-22.2528 2.0623,-105.2472 0,-127.5 -6.918,-74.6497 -25.2188,-150.7817 -52.1331,-216.875 -2.5196,-6.1875 -5.6457,-13.9127 -6.9467,-17.1671 -4.0343,-10.091 -21.5539,-45.8653 -29.8528,-60.9579 -35.7331,-64.9853 -76.3014,-119.0252 -128.6574,-171.3812 -52.356,-52.356 -106.3958,-92.9242 -171.3811,-128.6573 -15.0926,-8.2989 -50.8669,-25.8186 -60.9579,-29.8528 -3.2544,-1.301 -10.9796,-4.427 -17.1671,-6.9467 -66.0933,-26.9143 -142.2254,-45.2152 -216.875,-52.1332 -22.2528,-2.0622 -105.2472,-2.0622 -127.5,0 -74.6496,6.918 -150.7817,25.2189 -216.875,52.1332 -6.1875,2.5197 -13.9127,5.6457 -17.1671,6.9467 -10.091,4.0342 -45.8653,21.5539 -60.9579,29.8528 -64.9853,35.7331 -119.0252,76.3013 -171.3812,128.6573 -52.356,52.356 -92.9242,106.3959 -128.6573,171.3812 -8.2989,15.0926 -25.8186,50.8669 -29.8527,60.9579 -1.3011,3.2544 -4.4271,10.9796 -6.9468,17.1671 -26.9143,66.0933 -45.2152,142.2253 -52.1331,216.875 -2.0623,22.2528 -2.0623,105.2472 0,127.5 6.9179,74.6496 25.2188,150.7817 52.1331,216.875 2.5197,6.1875 5.6457,13.9127 6.9468,17.1671 4.0341,10.091 21.5538,45.8653 29.8527,60.9579 35.7331,64.9853 76.3013,119.0251 128.6573,171.3811 52.356,52.356 106.3959,92.9243 171.3812,128.6574 15.0926,8.2989 50.8669,25.8185 60.9579,29.8528 3.2544,1.301 10.9796,4.4271 17.1671,6.9467 75.3984,30.7034 151.7615,47.6471 241.875,53.668 13.2784,0.8871 89.5372,-0.3835 104.375,-1.7391 z m -15.625,-374.6275 0,-77.5074 13.4375,-0.7938 c 92.9021,-5.4881 155.8886,-65.004 184.1075,-173.9632 5.4357,-20.9882 8.721,-38.8895 12.0463,-65.6375 3.1848,-25.6185 3.1908,-106.6992 0.01,-134.9875 -8.9656,-79.7337 -29.2314,-135.8398 -60.2817,-166.8901 -25.9077,-25.9077 -65.488,-41.8563 -116.0992,-46.7812 -8.9663,-0.8725 -78.8167,-1.3287 -203.4375,-1.3287 l -189.7829,0 0,-77.5631 0,-77.5631 211.5625,0.466 c 230.0506,0.5069 223.9315,0.3307 267.4445,7.702 21.527,3.6467 34.078,6.7383 52.1063,12.8348 68.4605,23.1509 121.6347,65.9859 163.0172,131.32 11.5173,18.1833 29.1009,53.684 36.3831,73.456 23.5081,63.8268 36.1839,157.8858 32.087,238.0974 -5.0312,98.5065 -23.1028,173.6794 -58.6788,244.088 -19.3726,38.3403 -39.5152,67.2907 -65.5786,94.2544 -52.5581,54.3735 -117.3779,85.2635 -198.9682,94.8185 -8.9375,1.0467 -30.4531,2.2592 -47.8125,2.6946 l -31.5625,0.7914 0,-77.5075 z"
     style="fill:#2e2e2e" />
  <g
     id="g6118"
     transform="translate(-437.88167,-436.85073)">
    <g
       id="g6123"
       transform="matrix(0.5,0,0,0.5,437.53457,437.03972)">
      <ellipse
         ry="833.69684"
         rx="814.0343"
         cy="866.49103"
         cx="871.71136"
         id="path6094"
         style="fill:#ffffff;fill-opacity:1" />
      <path
         inkscape:connector-curvature="0"
         id="path6048"
         d="m 564.94922,957.43208 0,-366.25 91.25,0 91.25,0 0,288.75 0,288.75012 82.5,0 82.5,0 0,77.5 0,77.5 -173.75,0 -173.75,0 0,-366.25012 z"
         style="fill:#00acee" />
      <path
         inkscape:connector-curvature="0"
         id="path6020"
         d="m 816.31919,1748.2884 c -2.4063,-0.2605 -11.6875,-1.073 -20.625,-1.8053 -21.2323,-1.7398 -63.5325,-7.7772 -88.0319,-12.5644 -163.8141,-32.0096 -310.6721,-107.1822 -432.7967,-221.5364 -58.6546,-54.9226 -111.9728,-121.37 -153.2828,-191.0277 C 62.004991,1220.8935 24.360691,1113.3104 7.6777905,995.82758 1.2740905,950.73202 0.69419051,940.61912 0.69419051,874.04572 c 0,-66.5734 0.57989999,-76.6862 6.98359999,-121.7819 C 24.360691,634.78122 62.004991,527.19802 121.58279,426.73706 c 41.31,-69.6577 94.6282,-136.1051 153.2828,-191.0277 143.9816,-134.8206 322.6803,-215.149297 521.4536,-234.4038971 23.1716,-2.24459995 134.3284,-2.24459995 157.5,0 198.77321,19.2546001 377.47191,99.5832971 521.45351,234.4038971 58.6547,54.9226 111.9728,121.37 153.2828,191.0277 59.5777,100.46096 97.2221,208.04416 113.905,325.52676 6.4037,45.0957 6.9836,55.2085 6.9836,121.7819 0,66.5734 -0.5799,76.6863 -6.9836,121.78186 -16.6829,117.48282 -54.3273,225.06592 -113.905,325.52702 -41.31,69.6577 -94.6282,136.1051 -153.2828,191.0277 -132.3211,123.902 -293.741,201.8003 -473.3286,228.4198 -44.76891,6.6359 -55.01881,7.288 -119.99991,7.6341 -33.6875,0.1793 -63.2188,0.1125 -65.625,-0.1478 z m 108.75,-125.5522 c 30.0275,-1.9006 84.68841,-8.9666 95.59061,-12.357 2.0814,-0.6473 8.5656,-2.1102 14.4093,-3.251 30.885,-6.0293 84.1316,-22.265 118.75,-36.2086 95.2036,-38.346 179.4206,-93.9864 251.779,-166.3448 72.3584,-72.3584 127.9988,-156.5754 166.3448,-251.779 13.9436,-34.6184 30.1793,-87.865 36.2086,-118.75 1.1409,-5.8437 2.6037,-12.3279 3.251,-14.4093 1.4605,-4.6965 6.9,-39.85358 9.278,-59.96578 5.8515,-49.492 5.8515,-121.7579 0,-171.25 -2.378,-20.1121 -7.8175,-55.2692 -9.278,-59.9657 -0.6473,-2.0813 -2.1102,-8.5655 -3.251,-14.4093 -6.0293,-30.8849 -22.265,-84.1316 -36.2086,-118.75 -38.346,-95.2035 -93.9864,-179.42046 -166.3448,-251.77886 -72.3584,-72.3584 -156.5754,-127.9988 -251.779,-166.3449 -34.6184,-13.9436 -87.865,-30.1792 -118.75,-36.2086 -5.8437,-1.1408 -12.3279,-2.6037 -14.4093,-3.251 -4.6965,-1.4605 -39.85351,-6.9 -59.96561,-9.2779 -49.492,-5.8516 -121.758,-5.8516 -171.25,0 -20.1121,2.3779 -55.2692,7.8174 -59.9657,9.2779 -2.0814,0.6473 -8.5656,2.1102 -14.4093,3.251 -30.885,6.0294 -84.1316,22.265 -118.75,36.2086 -95.2036,38.3461 -179.4206,93.9865 -251.779,166.3449 -72.3584,72.3584 -127.9987,156.57536 -166.3448,251.77886 -13.9436,34.6184 -30.1793,87.8651 -36.2086,118.75 -1.1408,5.8438 -2.6038,12.328 -3.251,14.4093 -1.4605,4.6965 -6.9,39.8536 -9.278,59.9657 -5.8515,49.4921 -5.8515,121.758 0,171.25 2.378,20.1122 7.8175,55.26928 9.278,59.96578 0.6472,2.0814 2.1102,8.5656 3.251,14.4093 6.0293,30.885 22.265,84.1316 36.2086,118.75 38.3461,95.2036 93.9864,179.4206 166.3448,251.779 72.3584,72.3584 156.5754,127.9988 251.779,166.3448 34.6184,13.9436 87.865,30.1793 118.75,36.2086 5.8437,1.1409 12.3279,2.6037 14.4093,3.251 10.0257,3.1177 66.0858,10.5481 92.4657,12.2556 23.8807,1.5459 79.4419,1.6004 103.125,0.1012 z m 0,-376.0046 0,-77.3143 14.0625,-0.727 c 46.693,-2.4141 87.85371,-20.2046 119.09481,-51.4752 41.1979,-41.2369 65.7139,-101.1825 76.4499,-186.93178 1.8542,-14.8097 2.2645,-27.2302 2.2501,-68.1126 -0.018,-50.8712 -0.6445,-61.436 -5.6672,-95.5484 -9.427,-64.0247 -31.9587,-117.55 -60.2972,-143.2391 -19.7867,-17.9368 -47.1729,-31.1246 -78.91621,-38.0021 -29.1099,-6.3068 -30.1692,-6.3354 -235.4065,-6.3354 l -191.5702,0 0,-77.5696 0,-77.56956 209.6875,0.4987 c 217.0605,0.5162 218.0099,0.5382 256.56241,5.9484 108.5891,15.2383 185.2415,68.50766 239.7916,166.64256 32.8767,59.1444 52.4731,138.9295 56.4015,229.6331 3.4814,80.3826 -7.31,165.93376 -29.5535,234.29148 -32.671,100.403 -87.7006,174.6914 -161.159,217.5601 -53.4657,31.2014 -114.7603,45.413 -196.41801,45.5409 l -15.3125,0.024 0,-77.3142 z"
         style="fill:#000000" />
    </g>
  </g>
  <g
     inkscape:groupmode="layer"
     id="layer1"
     inkscape:label="Layer 1"
     transform="translate(-437.88167,-436.85073)" />
</svg>
